<svg xmlns="http://www.w3.org/2000/svg" viewBox="0 0 500 502.24"><defs><style>.cls-1{fill:#2f3666;}.cls-2{fill:#6a7ae6;}</style></defs><g id="Capa_2" data-name="Capa 2"><g id="Capa_1-2" data-name="Capa 1"><path class="cls-1" d="M238,1.42,188,135.85l-4.36,11.68a123.25,123.25,0,0,0-51.61,138.71l-4.32,11.65-50,134.43A249.3,249.3,0,0,1,0,251.1C0,117,105.54,7.64,238,1.42Z"/><path class="cls-1" d="M336,485.85a250.45,250.45,0,0,1-174.14-.75l.14-.43,42.14-119.39a123.5,123.5,0,0,0,90.5.46l41.22,119.72Z"/><path class="cls-1" d="M500,1.1v250a249.12,249.12,0,0,1-77.82,181.22l-50-134.4-4.32-11.64a123,123,0,0,0-51.6-138.71v0l-4.36-11.68L261.86,1.1Z"/><polygon class="cls-2" points="436.73 502.24 353 502.24 346 481.96 304.5 361.39 249.99 203.17 194.35 360.83 151.9 481.12 144.46 502.24 63.24 502.24 86.34 440.06 137.8 301.62 156.6 251.1 198.07 139.59 249.57 1.12 249.99 0 250.41 1.12 250.66 1.79 301.9 139.59 362.17 301.67 413.63 440.09 436.73 502.24"/></g></g></svg>