<svg xmlns="http://www.w3.org/2000/svg" viewBox="0 0 500 155.35"><defs><style>.cls-1{fill:#6a7ae6;}.cls-2{fill:#2f3666;}</style></defs><g id="Capa_2" data-name="Capa 2"><g id="Capa_1-2" data-name="Capa 1"><polygon class="cls-1" points="277.39 155.35 249.59 155.35 216.52 61.3 183.57 155.35 156.56 155.35 216.38 0 272.78 143.56 277.39 155.35"/><path class="cls-2" d="M317.37,155.35V0h31V155.35Z"/><path class="cls-2" d="M419.41,30.4V59.7h47.1V89.88h-47.1v65.47h-31V0H500V30.4Z"/><path class="cls-2" d="M126.58,77.67q0,20.43-6.81,35.18A68.29,68.29,0,0,1,101.69,137,73.24,73.24,0,0,1,76,150.91a99.12,99.12,0,0,1-29.36,4.44H0V0H48.89A110.7,110.7,0,0,1,79.81,4.11a62.1,62.1,0,0,1,24.56,13.42,63.43,63.43,0,0,1,16.29,24.08Q126.59,56.37,126.58,77.67Zm-32.37,0q0-23.74-10.94-35.62T47.55,30.18H31v95h15.4a60,60,0,0,0,21.33-3.44,38.85,38.85,0,0,0,14.84-9.66,40,40,0,0,0,8.71-15A61.61,61.61,0,0,0,94.21,77.67Z"/></g></g></svg>